# xmcd CD database file generated by Grip 3.3.1
# 
# Track frame offsets:
#       150
#       13690
#       30673
#       49705
#       66600
#       88620
#       102843
#       118053
#       137138
#       150138
#       163675
#       184683
#       200283
#       215595
# 
# Disc length: 3159 seconds
# 
# Revision: 2
# Processed by: cddbd v1.5.2PL0 Copyright (c) Steve Scherf et al.
# Submitted via: Grip 3.3.1
# 
DISCID=bc0c550e
DTITLE=Percy Strother - The Highway Is My Home
DYEAR=1995
DGENRE=Blues
TTITLE0=Cut You Off like a Light
TTITLE1=The Highway Is My Home
TTITLE2=You Are So Sweet
TTITLE3=Looking for Somebody New
TTITLE4=Easy Baby
TTITLE5=One of These Mornings
TTITLE6=Can You Get Away from Him Tonight
TTITLE7=I Don't Trust You No More
TTITLE8=This Time Belongs to You and Me
TTITLE9=Forty Days and Forty Nights
TTITLE10=I've Got the Blues
TTITLE11=I'm Tore Down
TTITLE12=What You Gonna Do (When the One You Love Start Cheating on You)
TTITLE13=Mind Your Own Business
EXTD=
EXTT0=
EXTT1=
EXTT2=
EXTT3=
EXTT4=
EXTT5=
EXTT6=
EXTT7=
EXTT8=
EXTT9=
EXTT10=
EXTT11=
EXTT12=
EXTT13=
PLAYORDER=
